<?xml version="1.0" encoding="utf-8"?>
<!-- Generator: Adobe Illustrator 28.0.0, SVG Export Plug-In . SVG Version: 6.00 Build 0)  -->
<svg version="1.1" id="Camada_1" xmlns="http://www.w3.org/2000/svg" xmlns:xlink="http://www.w3.org/1999/xlink" x="0px" y="0px"
	 viewBox="0 0 504.55 137.02" style="enable-background:new 0 0 504.55 137.02;" xml:space="preserve">
<style type="text/css">
	.st0{fill:#DFDFDF;}
	.st1{fill:#E01818;}
	.st2{fill:#FFFFFF;}
	.st3{fill:#5F5F5F;}
</style>
<g>
	<g>
		<g>
			<path d="M522,4.17l0.12,96.72h33.25V52.96h33.27c6.98,0,12.62,5.67,12.59,12.65l-0.17,35.27H635l-0.08-46.31
				c-0.02-12.4-10.08-22.44-22.48-22.44h-57.08V4.17H522z"/>
		</g>
		<g>
			<path class="st0" d="M524.65,0l0.12,96.72h33.25V48.8h33.27c6.98,0,12.62,5.67,12.59,12.65l-0.17,35.27h33.94l-0.08-46.31
				c-0.02-12.4-10.08-22.44-22.48-22.44h-57.08V0H524.65z"/>
		</g>
	</g>
	<g>
		<g>
			<path d="M676.11,132.95V53.44c0-11.82,9.58-21.39,21.39-21.39h70.62c11.61,0,21.02,9.41,21.02,21.02V80.1
				c0,11.48-9.31,20.79-20.79,20.79h-48.31V80.13h29.25c4.03,0,7.29-3.26,7.29-7.29V60.44c0-4.37-3.54-7.91-7.91-7.91h-30.46
				c-4.64,0-8.4,3.76-8.4,8.4v72.03H676.11z"/>
		</g>
		<g>
			<path class="st0" d="M678.76,128.79V49.27c0-11.82,9.58-21.39,21.39-21.39h70.62c11.61,0,21.02,9.41,21.02,21.02v27.04
				c0,11.48-9.31,20.79-20.79,20.79h-48.31V75.97h29.25c4.03,0,7.29-3.26,7.29-7.29V56.27c0-4.37-3.54-7.91-7.91-7.91h-30.46
				c-4.64,0-8.4,3.76-8.4,8.4v72.03H678.76z"/>
		</g>
	</g>
	<g>
		<g>
			<path d="M892.49,32.04h-71.16c-11.31,0-22.34,9.17-22.34,20.48h73.19c3.18,0,5.76,2.58,5.76,5.76v3.29h-57.71
				c-11.31,0-20.48,9.17-20.48,20.48c0,5.2,2.73,9.91,6.75,13.31c4.02,3.4,9.35,5.51,14.55,5.51h91.16V51.76
				C912.2,40.87,903.37,32.04,892.49,32.04z M878.4,75.02c0,4.31-2.62,8.8-7.48,8.8H822.6c0-5.33,4.32-9.66,9.65-9.66h46.15V75.02z"
				/>
		</g>
		<g>
			<path class="st0" d="M895.14,27.88h-71.16c-11.31,0-22.34,9.17-22.34,20.48h73.19c3.18,0,5.76,2.58,5.76,5.76v3.29h-57.71
				c-11.31,0-20.48,9.17-20.48,20.48c0,5.2,2.73,9.91,6.75,13.31c4.03,3.4,9.35,5.51,14.55,5.51h91.16V47.59
				C914.85,36.7,906.02,27.88,895.14,27.88z M881.06,70.85c0,4.31-2.62,8.8-7.48,8.8h-48.32c0-5.33,4.32-9.66,9.65-9.66h46.15V70.85
				z"/>
		</g>
	</g>
	<g>
		<g>
			<path d="M922.04,100.89h34.08V58.55c0-3.24,2.63-5.87,5.87-5.87h61.91v0c0-12.84-11.21-19.69-22.74-19.69H940.5
				c-9.2,0-18.46,3.31-18.46,21.11V100.89z"/>
		</g>
		<g>
			<path class="st0" d="M924.69,96.72h34.08V54.38c0-3.24,2.63-5.87,5.87-5.87h61.91v0c0-12.84-11.21-19.69-22.74-19.69h-60.66
				c-9.2,0-18.46,3.31-18.46,21.11V96.72z"/>
		</g>
	</g>
	<g>
		<g>
			<rect x="642.6" y="78.9" width="24.52" height="21.99"/>
		</g>
		<g>
			<rect x="645.25" y="74.74" class="st1" width="24.52" height="21.99"/>
		</g>
	</g>
	<g>
		<path class="st2" d="M846.76,115.69h-13.81v16.33h4.54v-5.65h9.27C852.54,126.37,852.54,115.69,846.76,115.69z M846.16,123.25H837
			v-4.51h9.16V123.25z"/>
	</g>
	<g>
		<path class="st2" d="M865.24,119.75h-10.92v2.84h9.04v1.99h-6.66c-1.68,0-3.04,1.36-3.04,3.04v1.4c0,1.65,1.34,3,3,3h10.96v-9.89
			C867.61,120.81,866.55,119.75,865.24,119.75z M863.57,129.64h-5.09c-0.8,0-1.44-0.65-1.44-1.44v-0.42c0-0.64,0.53-1.17,1.17-1.17
			h5.36V129.64z"/>
	</g>
	<path class="st2" d="M880.25,120.03h-6.02c-1.46,0-2.64,1.18-2.64,2.64v9.34h3.83v-9.47c0-0.32,0.26-0.57,0.57-0.57h4.26V120.03z"
		/>
	<path class="st2" d="M891.99,123.25v-3.22h-5.06v-4.34h-4.54v12.42c0,2.16,1.75,3.91,3.91,3.91h5.7v-2h-5.06v-6.77H891.99z"/>
	<rect x="894.83" y="115.64" class="st2" width="4.4" height="2.43"/>
	<rect x="894.83" y="120.03" class="st2" width="4.4" height="11.99"/>
	<path class="st2" d="M915.38,123.25v-3.22h-9.32c-2.16,0-3.92,1.75-3.92,3.92v4.72c0,1.85,1.5,3.35,3.35,3.35h9.89v-2.66h-8.41
		c-0.49,0-0.89-0.4-0.89-0.89v-4.16c0-0.58,0.47-1.06,1.06-1.06H915.38z"/>
	<rect x="918.68" y="115.64" class="st2" width="4.21" height="2.17"/>
	<rect x="918.68" y="120.2" class="st2" width="4.21" height="11.81"/>
	<path class="st2" d="M937.98,120.03h-12.04v16.99h4.21v-5.01h7.68c1.49,0,2.69-1.2,2.69-2.69v-6.75
		C940.53,121.17,939.39,120.03,937.98,120.03z M936.41,129.02c0,0.29-0.23,0.52-0.52,0.52h-5.74v-7.74h5.77
		c0.27,0,0.48,0.22,0.48,0.48V129.02z"/>
	<path class="st2" d="M944.01,120.03v2.55h9.09v1.81h-6.19c-2.09,0-3.79,1.7-3.79,3.79v0.05c0,2.13,1.73,3.86,3.86,3.86h10.2v-9.01
		c0-1.69-1.37-3.05-3.05-3.05H944.01z M953.09,129.55h-5.19c-0.8,0-1.46-0.65-1.46-1.46v0c0-0.8,0.65-1.46,1.46-1.46h5.19V129.55z"
		/>
	<path class="st2" d="M974.11,122.82v-2.79h-9.85c-1.86,0-3.36,1.5-3.36,3.36v5.6c0,1.67,1.35,3.02,3.02,3.02h4.81v2.57
		c0,0.33-0.26,0.59-0.59,0.59h-2.7v1.33h4.02c1.23,0,2.22-1,2.22-2.22v-2.26h2.41v-2.47h-8.35c-0.56,0-1.02-0.46-1.02-1.02v-4.74
		c0-0.53,0.43-0.96,0.96-0.96H974.11z"/>
	<path class="st2" d="M988.11,120.22h-7.67c-1.86,0-3.37,1.51-3.37,3.37v4.92c0,1.86,1.51,3.37,3.37,3.37h7.22
		c2.11,0,3.82-1.71,3.82-3.82v-4.47C991.48,121.73,989.97,120.22,988.11,120.22z M986.84,129.3c0,0.31-0.25,0.56-0.55,0.56h-4.35
		c-0.31,0-0.56-0.25-0.56-0.56v-6.63c0-0.31,0.25-0.55,0.56-0.55h4.35c0.31,0,0.55,0.25,0.55,0.55V129.3z"/>
	<path class="st2" d="M979.58,117.17h2.06c0,0,0.69-1.56,1.35-1.56s1.94,1.44,3.55,1.44c2.37,0,2.48-3.01,2.48-3.01l-1.89-0.26
		c0,0,0.14,1.51-0.57,1.51c-0.62,0-1.66-1.77-3.81-1.77C980.12,113.52,979.58,117.17,979.58,117.17z"/>
	<path class="st2" d="M994.61,122.43v7.46c0,1.17,0.95,2.11,2.11,2.11h12.19v-2.67h-10.01v-2.82h10.01v-4.59
		c0-1.05-0.85-1.89-1.89-1.89h-10.02C995.69,120.03,994.61,121.11,994.61,122.43z M1004.59,124.12h-5.51v-1.82
		c0-0.22,0.18-0.4,0.4-0.4h4.7c0.23,0,0.42,0.19,0.42,0.42V124.12z"/>
	<path class="st2" d="M1016.64,124.12v-1.91h9.11v-2.18h-11.06c-1.38,0-2.5,1.12-2.5,2.5v2.2c0,1.22,0.99,2.21,2.21,2.21h7.63v2.56
		h-9.84v2.39h12.32c1.09,0,1.98-0.88,1.98-1.98v-4.34c0-0.81-0.65-1.46-1.46-1.46H1016.64z"/>
</g>
<g>
	<g>
		<g>
			<path d="M0,4.17l0.12,96.72h33.25V52.96h33.27c6.98,0,12.62,5.67,12.59,12.65l-0.17,35.27H113l-0.08-46.31
				c-0.02-12.4-10.08-22.44-22.48-22.44H33.37V4.17H0z"/>
		</g>
		<g>
			<path class="st0" d="M2.65,0l0.12,96.72h33.25V48.8h33.27c6.98,0,12.62,5.67,12.59,12.65l-0.17,35.27h33.94l-0.08-46.31
				c-0.02-12.4-10.08-22.44-22.48-22.44H36.02V0H2.65z"/>
		</g>
	</g>
	<g>
		<g>
			<path d="M154.11,132.95V53.44c0-11.82,9.58-21.39,21.39-21.39h70.62c11.61,0,21.02,9.41,21.02,21.02V80.1
				c0,11.48-9.31,20.79-20.79,20.79h-48.31V80.13h29.25c4.03,0,7.29-3.26,7.29-7.29V60.44c0-4.37-3.54-7.91-7.91-7.91h-30.46
				c-4.64,0-8.4,3.76-8.4,8.4v72.03H154.11z"/>
		</g>
		<g>
			<path class="st0" d="M156.76,128.79V49.27c0-11.82,9.58-21.39,21.39-21.39h70.62c11.61,0,21.02,9.41,21.02,21.02v27.04
				c0,11.48-9.31,20.79-20.79,20.79h-48.31V75.97h29.25c4.03,0,7.29-3.26,7.29-7.29V56.27c0-4.37-3.54-7.91-7.91-7.91h-30.46
				c-4.64,0-8.4,3.76-8.4,8.4v72.03H156.76z"/>
		</g>
	</g>
	<g>
		<g>
			<path d="M370.49,32.04h-71.16c-11.31,0-22.34,9.17-22.34,20.48h73.19c3.18,0,5.76,2.58,5.76,5.76v3.29h-57.71
				c-11.31,0-20.48,9.17-20.48,20.48c0,5.2,2.73,9.91,6.75,13.31c4.03,3.4,9.35,5.51,14.55,5.51h91.16V51.76
				C390.2,40.87,381.37,32.04,370.49,32.04z M356.4,75.02c0,4.31-2.62,8.8-7.48,8.8H300.6c0-5.33,4.32-9.66,9.65-9.66h46.15V75.02z"
				/>
		</g>
		<g>
			<path class="st0" d="M373.14,27.88h-71.16c-11.31,0-22.34,9.17-22.34,20.48h73.19c3.18,0,5.76,2.58,5.76,5.76v3.29h-57.71
				c-11.31,0-20.48,9.17-20.48,20.48c0,5.2,2.73,9.91,6.75,13.31c4.03,3.4,9.35,5.51,14.55,5.51h91.16V47.59
				C392.85,36.7,384.02,27.88,373.14,27.88z M359.06,70.85c0,4.31-2.62,8.8-7.48,8.8h-48.32c0-5.33,4.32-9.66,9.65-9.66h46.15V70.85
				z"/>
		</g>
	</g>
	<g>
		<g>
			<path d="M400.04,100.89h34.08V58.55c0-3.24,2.63-5.87,5.87-5.87h61.91v0c0-12.84-11.21-19.69-22.74-19.69H418.5
				c-9.2,0-18.46,3.31-18.46,21.11V100.89z"/>
		</g>
		<g>
			<path class="st0" d="M402.69,96.72h34.08V54.38c0-3.24,2.63-5.87,5.87-5.87h61.91v0c0-12.84-11.21-19.69-22.74-19.69h-60.66
				c-9.2,0-18.46,3.31-18.46,21.11V96.72z"/>
		</g>
	</g>
	<g>
		<g>
			<rect x="120.6" y="78.9" width="24.52" height="21.99"/>
		</g>
		<g>
			<rect x="123.25" y="74.74" class="st1" width="24.52" height="21.99"/>
		</g>
	</g>
	<g>
		<path class="st3" d="M324.76,115.69h-13.81v16.33h4.54v-5.65h9.27C330.54,126.37,330.54,115.69,324.76,115.69z M324.16,123.25H315
			v-4.51h9.16V123.25z"/>
	</g>
	<g>
		<path class="st3" d="M343.24,119.75h-10.92v2.84h9.04v1.99h-6.66c-1.68,0-3.04,1.36-3.04,3.04v1.4c0,1.65,1.34,3,3,3h10.96v-9.89
			C345.61,120.81,344.55,119.75,343.24,119.75z M341.57,129.64h-5.09c-0.8,0-1.44-0.65-1.44-1.44v-0.42c0-0.64,0.53-1.17,1.17-1.17
			h5.36V129.64z"/>
	</g>
	<path class="st3" d="M358.25,120.03h-6.02c-1.46,0-2.64,1.18-2.64,2.64v9.34h3.83v-9.47c0-0.32,0.26-0.57,0.57-0.57h4.26V120.03z"
		/>
	<path class="st3" d="M369.99,123.25v-3.22h-5.06v-4.34h-4.54v12.42c0,2.16,1.75,3.91,3.91,3.91h5.7v-2h-5.06v-6.77H369.99z"/>
	<rect x="372.83" y="115.64" class="st3" width="4.4" height="2.43"/>
	<rect x="372.83" y="120.03" class="st3" width="4.4" height="11.99"/>
	<path class="st3" d="M393.38,123.25v-3.22h-9.32c-2.16,0-3.92,1.75-3.92,3.92v4.72c0,1.85,1.5,3.35,3.35,3.35h9.89v-2.66h-8.41
		c-0.49,0-0.89-0.4-0.89-0.89v-4.16c0-0.58,0.47-1.06,1.06-1.06H393.38z"/>
	<rect x="396.68" y="115.64" class="st3" width="4.21" height="2.17"/>
	<rect x="396.68" y="120.2" class="st3" width="4.21" height="11.81"/>
	<path class="st3" d="M415.98,120.03h-12.04v16.99h4.21v-5.01h7.68c1.49,0,2.69-1.2,2.69-2.69v-6.75
		C418.53,121.17,417.39,120.03,415.98,120.03z M414.41,129.02c0,0.29-0.23,0.52-0.52,0.52h-5.74v-7.74h5.77
		c0.27,0,0.48,0.22,0.48,0.48V129.02z"/>
	<path class="st3" d="M422.01,120.03v2.55h9.09v1.81h-6.19c-2.09,0-3.79,1.7-3.79,3.79v0.05c0,2.13,1.73,3.86,3.86,3.86h10.2v-9.01
		c0-1.69-1.37-3.05-3.05-3.05H422.01z M431.09,129.55h-5.19c-0.8,0-1.46-0.65-1.46-1.46v0c0-0.8,0.65-1.46,1.46-1.46h5.19V129.55z"
		/>
	<path class="st3" d="M452.11,122.82v-2.79h-9.85c-1.86,0-3.36,1.5-3.36,3.36v5.6c0,1.67,1.35,3.02,3.02,3.02h4.81v2.57
		c0,0.33-0.26,0.59-0.59,0.59h-2.7v1.33h4.02c1.23,0,2.22-1,2.22-2.22v-2.26h2.41v-2.47h-8.35c-0.56,0-1.02-0.46-1.02-1.02v-4.74
		c0-0.53,0.43-0.96,0.96-0.96H452.11z"/>
	<path class="st3" d="M466.11,120.22h-7.67c-1.86,0-3.37,1.51-3.37,3.37v4.92c0,1.86,1.51,3.37,3.37,3.37h7.22
		c2.11,0,3.82-1.71,3.82-3.82v-4.47C469.48,121.73,467.97,120.22,466.11,120.22z M464.84,129.3c0,0.31-0.25,0.56-0.55,0.56h-4.35
		c-0.31,0-0.56-0.25-0.56-0.56v-6.63c0-0.31,0.25-0.55,0.56-0.55h4.35c0.31,0,0.55,0.25,0.55,0.55V129.3z"/>
	<path class="st3" d="M457.58,117.17h2.06c0,0,0.69-1.56,1.35-1.56c0.66,0,1.94,1.44,3.55,1.44c2.37,0,2.48-3.01,2.48-3.01
		l-1.89-0.26c0,0,0.14,1.51-0.57,1.51c-0.62,0-1.66-1.77-3.81-1.77C458.12,113.52,457.58,117.17,457.58,117.17z"/>
	<path class="st3" d="M472.61,122.43v7.46c0,1.17,0.95,2.11,2.11,2.11h12.19v-2.67h-10.01v-2.82h10.01v-4.59
		c0-1.05-0.85-1.89-1.89-1.89h-10.02C473.69,120.03,472.61,121.11,472.61,122.43z M482.59,124.12h-5.51v-1.82
		c0-0.22,0.18-0.4,0.4-0.4h4.7c0.23,0,0.42,0.19,0.42,0.42V124.12z"/>
	<path class="st3" d="M494.64,124.12v-1.91h9.11v-2.18h-11.06c-1.38,0-2.5,1.12-2.5,2.5v2.2c0,1.22,0.99,2.21,2.21,2.21h7.63v2.56
		h-9.84v2.39h12.32c1.09,0,1.98-0.88,1.98-1.98v-4.34c0-0.81-0.65-1.46-1.46-1.46H494.64z"/>
</g>
</svg>
